<svg width="159" height="207" viewBox="0 0 159 207" fill="none" xmlns="http://www.w3.org/2000/svg">
<mask id="path-1-inside-1_489_1553" fill="white">
<path d="M7.59978 88.3799C13.797 98.5165 22.698 107.114 30.7854 115.663C39.3036 124.701 48.6353 132.883 57.4645 141.603C66.2937 150.323 74.6922 159.116 84.2153 166.835C93.7384 174.553 102.807 181.49 112.186 188.647C120.566 195.464 129.887 200.979 139.846 205.012C143.914 206.527 149.202 207.894 153.27 205.598C157.337 203.302 158.295 197.684 158.271 193.386C158.159 187.985 157.687 182.599 156.859 177.265C155.926 170.792 155.375 164.197 153.94 157.724C151.403 146.415 149.489 134.984 147.073 123.528L146.522 120.207C146.596 120.118 146.637 120.005 146.637 119.889C146.637 119.773 146.596 119.66 146.522 119.571C143.125 99.0051 138.339 78.7806 134.176 58.2631C131.974 47.4914 128.648 37.0373 126.591 26.2411C124.94 17.4235 123.193 5.43051 113.694 1.81552C109.339 0.105729 104.673 1.00948 100.247 1.81552C94.3605 2.9391 88.5701 4.50229 82.7796 6.04111C71.6408 9.32479 60.8827 13.829 50.693 19.4752C32.4843 28.7325 10.8778 40.579 1.88113 60.3393C-2.18652 69.2058 2.93394 80.7103 7.59978 88.3799ZM45.7879 123.186C41.4059 119.355 37.236 115.278 33.2978 110.974C33.8791 108.857 34.6813 106.809 35.6905 104.867C36.6841 103.288 37.9771 101.928 39.4934 100.867C41.0097 99.8053 42.7187 99.0643 44.5197 98.6874C47.8696 97.857 52.2483 97.6371 54.0907 101.13C55.3589 103.573 54.8564 106.748 55.957 109.313C58.1105 114.198 65.1212 111.56 66.7483 116.811C68.5907 122.649 62.6567 130.392 58.3019 134.813C54.1146 130.734 50.047 126.826 45.7879 123.186ZM96.0354 169.766C86.9427 162.483 78.2141 154.739 69.8828 146.562L67.8011 144.485C72.8498 132.859 89.3358 129.342 99.3374 136.01C110.392 143.338 106.946 163.391 98.6435 171.891L96.0354 169.766ZM134.487 197.172L133.96 196.878C129.137 194.603 124.525 191.889 120.178 188.769C116.669 186.082 113.175 183.387 109.698 180.684C111.756 176.898 112.378 173.576 116.876 171.305C119.46 170.035 124.174 169.107 126.758 171.012C129.342 172.917 128.936 176.19 129.749 178.706C130.85 182.174 132.549 182.345 135.324 183.786C140.038 186.204 137.167 192.726 134.487 197.172ZM147.12 146.708C143.611 143.2 141.361 138.589 140.732 133.616C140.365 130.061 141.322 126.495 143.412 123.626L143.938 126.557C144.967 133.274 146.02 139.991 147.12 146.708ZM140.421 108.531C134.483 110.761 127.947 110.674 122.068 108.287C116.445 105.251 112.223 100.072 110.32 93.8757C107.76 87.1098 110.32 78.6341 114.46 72.9918C116.894 69.6618 120.447 67.3657 124.437 66.5434C126.625 66.0321 128.879 65.8837 131.113 66.1038C134.176 80.3439 137.502 94.3886 140.421 108.531ZM129.51 58.5319L130.587 63.6123C125.939 63.541 121.341 64.5869 117.163 66.6655C110.224 71.3064 106.061 81.6872 106.731 89.9919C107.225 93.9964 108.519 97.855 110.531 101.329C112.544 104.804 115.232 107.82 118.431 110.192C121.774 112.375 125.593 113.684 129.549 114.004C133.505 114.323 137.477 113.643 141.115 112.024C141.737 115.053 142.311 118.081 142.861 121.135C140.966 122.548 139.482 124.46 138.568 126.667C137.653 128.874 137.343 131.292 137.669 133.665C137.927 137.252 139.125 140.703 141.139 143.655C142.981 146.537 144.536 150.079 147.886 151.325C148.46 154.793 149.059 158.286 149.681 161.754C150.375 165.638 151.236 169.473 151.954 173.357C152.648 178.632 153.294 183.884 153.557 189.209C153.82 194.534 154.37 202.277 147.264 201.861C143.545 201.389 139.957 200.16 136.712 198.246C139.342 194.67 140.792 190.334 140.851 185.862C140.815 184.818 140.451 183.813 139.814 182.996C139.176 182.178 138.299 181.59 137.31 181.319C136.36 181.174 135.429 180.92 134.535 180.562C133.044 179.21 131.985 177.431 131.496 175.457C131.219 173.984 130.794 172.543 130.228 171.158C125.299 162.096 108.549 169.18 106.779 178.315C104.219 176.312 101.634 174.285 99.0981 172.233C105.415 168.838 108.478 161.144 109.363 154.109C110.368 146.146 108.406 138.037 101.706 133.274C90.0536 124.994 71.8927 128.951 65.0734 141.677C62.9917 139.576 60.9339 137.475 58.8283 135.399C64.1641 130.856 70.5767 123.357 69.2846 116.103C69.0723 114.705 68.4518 113.404 67.5041 112.371C66.5565 111.339 65.3258 110.622 63.9727 110.314C61.4125 109.532 59.4504 109.484 58.4933 106.382C57.8473 104.281 57.9191 101.961 57.1056 99.8355C54.4735 92.7765 45.1419 93.7535 39.4232 96.4159C35.5426 98.2307 32.4872 101.49 30.8811 105.527L30.1633 107.481C27.627 104.696 25.1146 101.863 22.6262 99.0783C20.5684 96.7823 18.5107 94.4374 16.5726 91.9948C17.5057 90.456 19.1089 88.7463 19.8028 87.6227C21.1666 85.3755 22.6023 83.3482 24.1097 81.2232C27.4272 76.5299 31.0653 72.0814 34.9966 67.9112C38.9057 63.2853 43.2052 59.0189 47.8457 55.1611C52.2976 52.03 56.95 49.2065 61.7714 46.7098C69.141 42.6796 76.1278 38.3807 83.665 34.7901C83.665 39.1867 84.6938 43.7787 88.4504 46.3434C93.4991 49.7385 98.2368 48.2487 103.309 46.0015C109.626 43.1926 109.722 55.7717 116.182 55.9671C120.968 56.138 124.174 52.1811 126.926 48.5173C127.931 51.8636 128.768 55.1855 129.51 58.5806L129.51 58.5319ZM122.475 30.6133C123.504 35.9136 124.988 41.1164 126.447 46.3191C122.738 50.447 117.163 56.8708 113.072 50.9354C111.158 48.1509 111.277 43.6077 107.497 42.5085C103.716 41.4094 99.5767 45.5129 95.533 45.4641C87.8283 45.342 87.9001 38.918 87.0148 33.2513C89.599 32.1033 92.231 31.053 94.9587 30.1249C100.221 28.448 105.595 27.1582 111.038 26.2656C113.806 25.7046 116.615 25.3859 119.436 25.3129C120.202 25.3129 120.896 25.3129 121.566 25.3129L122.475 30.6133ZM5.68559 69.6942C4.22602 60.5835 12.6724 50.6912 18.9414 45.0489C27.105 38.1035 36.0058 32.1144 45.4768 27.1938C54.8803 22.04 64.6188 16.2999 74.8836 12.9291C85.0147 9.35767 95.4905 6.90117 106.133 5.60146C116.398 4.64887 119.436 14.5168 121.159 23.481C119.771 23.2368 118.288 22.7727 117.092 22.6994C114.551 22.5041 111.999 22.5041 109.459 22.6994C103.085 23.3759 96.803 24.7601 90.7235 26.8273C78.377 30.882 67.2986 37.8677 55.8613 43.9253C50.8556 46.5156 46.1249 49.6259 41.7442 53.207C37.2169 57.4499 32.9044 61.9257 28.8234 66.6167C25.1578 70.7717 21.7761 75.1785 18.7021 79.8065C16.8836 82.249 15.4958 85.0336 13.9166 87.6227L13.797 87.8182C9.78207 82.4737 7.00852 76.2682 5.68559 69.67L5.68559 69.6942Z"/>
</mask>
<path d="M7.59978 88.3799C13.797 98.5165 22.698 107.114 30.7854 115.663C39.3036 124.701 48.6353 132.883 57.4645 141.603C66.2937 150.323 74.6922 159.116 84.2153 166.835C93.7384 174.553 102.807 181.49 112.186 188.647C120.566 195.464 129.887 200.979 139.846 205.012C143.914 206.527 149.202 207.894 153.27 205.598C157.337 203.302 158.295 197.684 158.271 193.386C158.159 187.985 157.687 182.599 156.859 177.265C155.926 170.792 155.375 164.197 153.94 157.724C151.403 146.415 149.489 134.984 147.073 123.528L146.522 120.207C146.596 120.118 146.637 120.005 146.637 119.889C146.637 119.773 146.596 119.66 146.522 119.571C143.125 99.0051 138.339 78.7806 134.176 58.2631C131.974 47.4914 128.648 37.0373 126.591 26.2411C124.94 17.4235 123.193 5.43051 113.694 1.81552C109.339 0.105729 104.673 1.00948 100.247 1.81552C94.3605 2.9391 88.5701 4.50229 82.7796 6.04111C71.6408 9.32479 60.8827 13.829 50.693 19.4752C32.4843 28.7325 10.8778 40.579 1.88113 60.3393C-2.18652 69.2058 2.93394 80.7103 7.59978 88.3799ZM45.7879 123.186C41.4059 119.355 37.236 115.278 33.2978 110.974C33.8791 108.857 34.6813 106.809 35.6905 104.867C36.6841 103.288 37.9771 101.928 39.4934 100.867C41.0097 99.8053 42.7187 99.0643 44.5197 98.6874C47.8696 97.857 52.2483 97.6371 54.0907 101.13C55.3589 103.573 54.8564 106.748 55.957 109.313C58.1105 114.198 65.1212 111.56 66.7483 116.811C68.5907 122.649 62.6567 130.392 58.3019 134.813C54.1146 130.734 50.047 126.826 45.7879 123.186ZM96.0354 169.766C86.9427 162.483 78.2141 154.739 69.8828 146.562L67.8011 144.485C72.8498 132.859 89.3358 129.342 99.3374 136.01C110.392 143.338 106.946 163.391 98.6435 171.891L96.0354 169.766ZM134.487 197.172L133.96 196.878C129.137 194.603 124.525 191.889 120.178 188.769C116.669 186.082 113.175 183.387 109.698 180.684C111.756 176.898 112.378 173.576 116.876 171.305C119.46 170.035 124.174 169.107 126.758 171.012C129.342 172.917 128.936 176.19 129.749 178.706C130.85 182.174 132.549 182.345 135.324 183.786C140.038 186.204 137.167 192.726 134.487 197.172ZM147.12 146.708C143.611 143.2 141.361 138.589 140.732 133.616C140.365 130.061 141.322 126.495 143.412 123.626L143.938 126.557C144.967 133.274 146.02 139.991 147.12 146.708ZM140.421 108.531C134.483 110.761 127.947 110.674 122.068 108.287C116.445 105.251 112.223 100.072 110.32 93.8757C107.76 87.1098 110.32 78.6341 114.46 72.9918C116.894 69.6618 120.447 67.3657 124.437 66.5434C126.625 66.0321 128.879 65.8837 131.113 66.1038C134.176 80.3439 137.502 94.3886 140.421 108.531ZM129.51 58.5319L130.587 63.6123C125.939 63.541 121.341 64.5869 117.163 66.6655C110.224 71.3064 106.061 81.6872 106.731 89.9919C107.225 93.9964 108.519 97.855 110.531 101.329C112.544 104.804 115.232 107.82 118.431 110.192C121.774 112.375 125.593 113.684 129.549 114.004C133.505 114.323 137.477 113.643 141.115 112.024C141.737 115.053 142.311 118.081 142.861 121.135C140.966 122.548 139.482 124.46 138.568 126.667C137.653 128.874 137.343 131.292 137.669 133.665C137.927 137.252 139.125 140.703 141.139 143.655C142.981 146.537 144.536 150.079 147.886 151.325C148.46 154.793 149.059 158.286 149.681 161.754C150.375 165.638 151.236 169.473 151.954 173.357C152.648 178.632 153.294 183.884 153.557 189.209C153.82 194.534 154.37 202.277 147.264 201.861C143.545 201.389 139.957 200.16 136.712 198.246C139.342 194.67 140.792 190.334 140.851 185.862C140.815 184.818 140.451 183.813 139.814 182.996C139.176 182.178 138.299 181.59 137.31 181.319C136.36 181.174 135.429 180.92 134.535 180.562C133.044 179.21 131.985 177.431 131.496 175.457C131.219 173.984 130.794 172.543 130.228 171.158C125.299 162.096 108.549 169.18 106.779 178.315C104.219 176.312 101.634 174.285 99.0981 172.233C105.415 168.838 108.478 161.144 109.363 154.109C110.368 146.146 108.406 138.037 101.706 133.274C90.0536 124.994 71.8927 128.951 65.0734 141.677C62.9917 139.576 60.9339 137.475 58.8283 135.399C64.1641 130.856 70.5767 123.357 69.2846 116.103C69.0723 114.705 68.4518 113.404 67.5041 112.371C66.5565 111.339 65.3258 110.622 63.9727 110.314C61.4125 109.532 59.4504 109.484 58.4933 106.382C57.8473 104.281 57.9191 101.961 57.1056 99.8355C54.4735 92.7765 45.1419 93.7535 39.4232 96.4159C35.5426 98.2307 32.4872 101.49 30.8811 105.527L30.1633 107.481C27.627 104.696 25.1146 101.863 22.6262 99.0783C20.5684 96.7823 18.5107 94.4374 16.5726 91.9948C17.5057 90.456 19.1089 88.7463 19.8028 87.6227C21.1666 85.3755 22.6023 83.3482 24.1097 81.2232C27.4272 76.5299 31.0653 72.0814 34.9966 67.9112C38.9057 63.2853 43.2052 59.0189 47.8457 55.1611C52.2976 52.03 56.95 49.2065 61.7714 46.7098C69.141 42.6796 76.1278 38.3807 83.665 34.7901C83.665 39.1867 84.6938 43.7787 88.4504 46.3434C93.4991 49.7385 98.2368 48.2487 103.309 46.0015C109.626 43.1926 109.722 55.7717 116.182 55.9671C120.968 56.138 124.174 52.1811 126.926 48.5173C127.931 51.8636 128.768 55.1855 129.51 58.5806L129.51 58.5319ZM122.475 30.6133C123.504 35.9136 124.988 41.1164 126.447 46.3191C122.738 50.447 117.163 56.8708 113.072 50.9354C111.158 48.1509 111.277 43.6077 107.497 42.5085C103.716 41.4094 99.5767 45.5129 95.533 45.4641C87.8283 45.342 87.9001 38.918 87.0148 33.2513C89.599 32.1033 92.231 31.053 94.9587 30.1249C100.221 28.448 105.595 27.1582 111.038 26.2656C113.806 25.7046 116.615 25.3859 119.436 25.3129C120.202 25.3129 120.896 25.3129 121.566 25.3129L122.475 30.6133ZM5.68559 69.6942C4.22602 60.5835 12.6724 50.6912 18.9414 45.0489C27.105 38.1035 36.0058 32.1144 45.4768 27.1938C54.8803 22.04 64.6188 16.2999 74.8836 12.9291C85.0147 9.35767 95.4905 6.90117 106.133 5.60146C116.398 4.64887 119.436 14.5168 121.159 23.481C119.771 23.2368 118.288 22.7727 117.092 22.6994C114.551 22.5041 111.999 22.5041 109.459 22.6994C103.085 23.3759 96.803 24.7601 90.7235 26.8273C78.377 30.882 67.2986 37.8677 55.8613 43.9253C50.8556 46.5156 46.1249 49.6259 41.7442 53.207C37.2169 57.4499 32.9044 61.9257 28.8234 66.6167C25.1578 70.7717 21.7761 75.1785 18.7021 79.8065C16.8836 82.249 15.4958 85.0336 13.9166 87.6227L13.797 87.8182C9.78207 82.4737 7.00852 76.2682 5.68559 69.67L5.68559 69.6942Z" fill="#FFF2DE" fill-opacity="0.2" stroke="#0AA007" mask="url(#path-1-inside-1_489_1553)"/>
</svg>
